<svg height="512pt" viewBox="0 0 512 512" width="512pt" xmlns="http://www.w3.org/2000/svg"><path d="m413.941406 512h-315.882812c-54.070313 0-98.058594-43.300781-98.058594-96.523438v-318.953124c0-53.222657 43.988281-96.523438 98.058594-96.523438h213.914062c54.460938 0 98.765625 43.609375 98.765625 97.214844v79.898437h101.261719v238.363281c0 53.222657-43.988281 96.523438-98.058594 96.523438zm-315.882812-482c-37.527344 0-68.058594 29.84375-68.058594 66.523438v318.953124c0 36.679688 30.53125 66.523438 68.058594 66.523438h315.882812c37.527344 0 68.058594-29.84375 68.058594-66.523438v-208.367187h-101.261719v-109.894531c0-37.0625-30.847656-67.214844-68.765625-67.214844zm0 0"/><path d="m264.765625 207.109375h-121.003906c-27.019531 0-49-21.980469-49-49v-11.347656c0-27.019531 21.980469-49 49-49h121.003906c27.015625 0 49 21.980469 49 49v11.347656c0 27.019531-21.984375 49-49 49zm-121.003906-79.347656c-10.476563 0-19 8.523437-19 19v11.351562c0 10.476563 8.523437 19 19 19h121.003906c10.476563 0 19-8.523437 19-19v-11.351562c0-10.476563-8.523437-19-19-19zm0 0"/><path d="m369.21875 415.554688h-225.457031c-27.019531 0-49-21.984376-49-49v-44.75c0-27.019532 21.980469-49 49-49h225.457031c27.019531 0 49 21.980468 49 49v44.75c0 27.015624-21.980469 49-49 49zm-225.457031-112.75c-10.476563 0-19 8.519531-19 19v44.75c0 10.476562 8.523437 19 19 19h225.457031c10.476562 0 19-8.523438 19-19v-44.75c0-10.480469-8.523438-19-19-19zm0 0"/></svg>