<svg height="682.66669pt" viewBox="-21 -21 682.66669 682.66669" width="682.66669pt" xmlns="http://www.w3.org/2000/svg"><path d="m513.421875 221.386719v-99.867188c0-67.007812-55.378906-121.519531-123.457031-121.519531h-267.390625c-67.589844 0-122.574219 54.125-122.574219 120.65625v398.6875c0 66.53125 54.984375 120.65625 122.574219 120.65625h394.851562c67.589844 0 122.574219-54.125 122.574219-120.65625v-297.957031zm-394.96875-37.933594c0-33.773437 27.476563-61.25 61.25-61.25h151.253906c33.769531 0 61.25 27.476563 61.25 61.25v14.1875c0 33.773437-27.480469 61.25-61.25 61.25h-151.253906c-33.773437 0-61.25-27.476563-61.25-61.25zm404.320313 274.742187c0 33.765626-27.476563 61.25-61.25 61.25h-281.820313c-33.773437 0-61.25-27.484374-61.25-61.25v-55.9375c0-33.777343 27.476563-61.25 61.25-61.25h281.820313c33.773437 0 61.25 27.472657 61.25 61.25zm0 0"/></svg>